<svg xmlns="http://www.w3.org/2000/svg" version="1.1" xmlns:xlink="http://www.w3.org/1999/xlink" xmlns:svgjs="http://svgjs.dev/svgjs" width="1500" height="1500" viewBox="0 0 1500 1500"><rect width="1500" height="1500" fill="#000000"></rect><g transform="matrix(0.6666666666666666,0,0,0.6666666666666666,249.39393939393938,438.5856950067477)"><svg viewBox="0 0 396 247" data-background-color="#000000" preserveAspectRatio="xMidYMid meet" height="935" width="1500" xmlns="http://www.w3.org/2000/svg" xmlns:xlink="http://www.w3.org/1999/xlink"><g id="tight-bounds" transform="matrix(1,0,0,1,0.2400000000000091,-0.09999999999999432)"><svg viewBox="0 0 395.52 247.2" height="247.2" width="395.52"><rect width="395.52" height="247.2" fill="url(#664b3e2e-68a1-47f6-b76f-316d6f84d878)" mask="url(#8c3ad670-5a7a-44ac-8053-75068c4394f0)" data-fill-palette-color="tertiary"></rect><g><svg></svg></g><g><svg viewBox="0 0 395.52 247.2" height="247.2" width="395.52"><g><path d="M55.039 247.2l29.298-50.746h7.096l-25.556 44.264h263.766l-25.556-44.264 7.096 0 29.298 50.746zM197.76 0l29.298 50.746-7.095 0-22.203-38.456-22.203 38.456-7.095 0z" fill="url(#664b3e2e-68a1-47f6-b76f-316d6f84d878)" fill-rule="nonzero" stroke="none" stroke-width="1" stroke-linecap="butt" stroke-linejoin="miter" stroke-miterlimit="10" stroke-dasharray="" stroke-dashoffset="0" font-family="none" font-weight="none" font-size="none" text-anchor="none" style="mix-blend-mode: normal" data-fill-palette-color="tertiary"></path></g><g transform="matrix(1,0,0,1,0,71.56169343065693)"><svg viewBox="0 0 395.52 104.07661313868611" height="104.07661313868611" width="395.52"><g><svg viewBox="0 0 395.52 104.07661313868611" height="104.07661313868611" width="395.52"><g><svg viewBox="0 0 395.52 104.07661313868611" height="104.07661313868611" width="395.52"><g><svg viewBox="0 0 395.52 104.07661313868611" height="104.07661313868611" width="395.52"><g id="textblocktransform"><svg viewBox="0 0 395.52 104.07661313868611" height="104.07661313868611" width="395.52" id="textblock"><g><svg viewBox="0 0 395.52 104.07661313868611" height="104.07661313868611" width="395.52"><g transform="matrix(1,0,0,1,0,0)"><svg width="395.52" viewBox="3.9 -35.5 136.98999999999998 36.05" height="104.07661313868611" data-palette-color="url(#42ff84cf-3699-4a32-8bc5-6ae8890a87e5)"></svg></g></svg></g></svg></g></svg></g><g></g></svg></g></svg></g></svg></g></svg></g><defs></defs><mask id="e64d60c4-4c83-48cb-8873-d28a776f319d"><g id="SvgjsG3266"><svg viewBox="0 0 395.52 247.2" height="247.2" width="395.52"><g><svg></svg></g><g><svg viewBox="0 0 395.52 247.2" height="247.2" width="395.52"><g><path d="M55.039 247.2l29.298-50.746h7.096l-25.556 44.264h263.766l-25.556-44.264 7.096 0 29.298 50.746zM197.76 0l29.298 50.746-7.095 0-22.203-38.456-22.203 38.456-7.095 0z" fill="black" fill-rule="nonzero" stroke="none" stroke-width="1" stroke-linecap="butt" stroke-linejoin="miter" stroke-miterlimit="10" stroke-dasharray="" stroke-dashoffset="0" font-family="none" font-weight="none" font-size="none" text-anchor="none" style="mix-blend-mode: normal"></path></g><g transform="matrix(1,0,0,1,0,71.56169343065693)"><svg viewBox="0 0 395.52 104.07661313868611" height="104.07661313868611" width="395.52"><g><svg viewBox="0 0 395.52 104.07661313868611" height="104.07661313868611" width="395.52"><g><svg viewBox="0 0 395.52 104.07661313868611" height="104.07661313868611" width="395.52"><g><svg viewBox="0 0 395.52 104.07661313868611" height="104.07661313868611" width="395.52"><g id="SvgjsG3265"><svg viewBox="0 0 395.52 104.07661313868611" height="104.07661313868611" width="395.52" id="SvgjsSvg3264"><g><svg viewBox="0 0 395.52 104.07661313868611" height="104.07661313868611" width="395.52"><g transform="matrix(1,0,0,1,0,0)"><svg width="395.52" viewBox="3.9 -35.5 136.98999999999998 36.05" height="104.07661313868611" data-palette-color="url(#42ff84cf-3699-4a32-8bc5-6ae8890a87e5)"><path d="M13.95 0L3.9-35 6.9-35 15.85-3.45 24.8-35 27.8-35 17.8 0 13.95 0ZM36.1 0L36.1-32.45 32.75-32.55 32.75-35 38.9-35 38.9 0 36.1 0ZM47.35-8.9Q47.5-7.2 48.62-5.65 49.75-4.1 51.72-3.13 53.7-2.15 56.25-2.15L56.25-2.15Q60.09-2.15 62.67-3.88 65.25-5.6 65.25-9.35L65.25-9.35Q65.25-11.55 64-13.03 62.75-14.5 60.9-15.38 59.05-16.25 55.85-17.4L55.85-17.4Q52.4-18.6 50.32-19.63 48.25-20.65 46.82-22.4 45.4-24.15 45.4-26.9L45.4-26.9Q45.4-29.1 46.65-31.08 47.9-33.05 50.42-34.27 52.95-35.5 56.65-35.5L56.65-35.5Q59.09-35.5 60.7-35.15 62.3-34.8 63.95-34L63.95-34 63.1-31.35Q60.25-32.8 56.75-32.8L56.75-32.8Q52.9-32.8 50.6-31.2 48.3-29.6 48.3-26.75L48.3-26.75Q48.3-24.95 49.45-23.73 50.6-22.5 52.27-21.75 53.95-21 56.95-19.95L56.95-19.95Q60.59-18.7 62.85-17.63 65.09-16.55 66.67-14.58 68.25-12.6 68.25-9.6L68.25-9.6Q68.25-5 65.32-2.23 62.4 0.55 56.3 0.55L56.3 0.55Q52.6 0.55 49.97-0.83 47.35-2.2 45.97-4.38 44.6-6.55 44.5-8.9L44.5-8.9 47.35-8.9ZM77.34 0L77.34-32.45 73.99-32.55 73.99-35 80.14-35 80.14 0 77.34 0ZM92.39 0L92.39-32.5 83.89-32.5 83.89-35 103.99-35 103.99-32.5 95.19-32.5 95.19 0 92.39 0ZM107.89 0L107.89-35 110.69-35 110.69-2.5 125.94-2.5 125.94 0 107.89 0ZM134.99-1.5Q136.29-2 137.16-3.33 138.04-4.65 138.04-7.6L138.04-7.6 138.04-14.7Q136.69-13.5 134.44-12.88 132.19-12.25 130.14-12.25L130.14-12.25Q124.84-12.25 121.76-14.88 118.69-17.5 118.69-22.65L118.69-22.65 118.69-35 121.49-35 121.49-22.15Q121.49-18.65 123.89-16.82 126.29-15 130.14-15L130.14-15Q133.09-15 135.29-16.25 137.49-17.5 138.04-20L138.04-20 138.04-35 140.89-35 140.89-7.8Q140.89-4.15 139.51-2.08 138.14 0 135.64 0.35L135.64 0.35 134.99-1.5Z" opacity="1" transform="matrix(1,0,0,1,0,0)" fill="white" class="wordmark-text-0" id="SvgjsPath3263"></path></svg></g></svg></g></svg></g></svg></g><g></g></svg></g></svg></g></svg></g></svg></g><defs><mask></mask></defs></svg><rect width="395.52" height="247.2" fill="black" stroke="none" visibility="hidden"></rect></g></mask><linearGradient x1="0.054" x2="0.941" y1="0.5" y2="0.5" id="42ff84cf-3699-4a32-8bc5-6ae8890a87e5"><stop stop-color="#eaa79c" offset="0"></stop><stop stop-color="#f2e8cb" offset="0.498"></stop><stop stop-color="#eaa79c" offset="1"></stop></linearGradient><rect width="395.52" height="247.2" fill="url(#42ff84cf-3699-4a32-8bc5-6ae8890a87e5)" mask="url(#e64d60c4-4c83-48cb-8873-d28a776f319d)" data-fill-palette-color="primary"></rect><mask id="8c3ad670-5a7a-44ac-8053-75068c4394f0"><g id="SvgjsG3289"><svg viewBox="0 0 395.52 247.2" height="247.2" width="395.52"><g><svg></svg></g><g><svg viewBox="0 0 395.52 247.2" height="247.2" width="395.52"><g><path d="M55.039 247.2l29.298-50.746h7.096l-25.556 44.264h263.766l-25.556-44.264 7.096 0 29.298 50.746zM197.76 0l29.298 50.746-7.095 0-22.203-38.456-22.203 38.456-7.095 0z" fill="white" fill-rule="nonzero" stroke="none" stroke-width="1" stroke-linecap="butt" stroke-linejoin="miter" stroke-miterlimit="10" stroke-dasharray="" stroke-dashoffset="0" font-family="none" font-weight="none" font-size="none" text-anchor="none" style="mix-blend-mode: normal"></path></g><g transform="matrix(1,0,0,1,0,71.56169343065693)"><svg viewBox="0 0 395.52 104.07661313868611" height="104.07661313868611" width="395.52"><g><svg viewBox="0 0 395.52 104.07661313868611" height="104.07661313868611" width="395.52"><g><svg viewBox="0 0 395.52 104.07661313868611" height="104.07661313868611" width="395.52"><g><svg viewBox="0 0 395.52 104.07661313868611" height="104.07661313868611" width="395.52"><g id="SvgjsG3288"><svg viewBox="0 0 395.52 104.07661313868611" height="104.07661313868611" width="395.52" id="SvgjsSvg3287"><g><svg viewBox="0 0 395.52 104.07661313868611" height="104.07661313868611" width="395.52"><g transform="matrix(1,0,0,1,0,0)"><svg width="395.52" viewBox="3.9 -35.5 136.98999999999998 36.05" height="104.07661313868611" data-palette-color="url(#42ff84cf-3699-4a32-8bc5-6ae8890a87e5)"></svg></g></svg></g></svg></g></svg></g><g></g></svg></g></svg></g></svg></g></svg></g><defs><mask></mask></defs><mask><g id="SvgjsG3286"><svg viewBox="0 0 395.52 247.2" height="247.2" width="395.52"><g><svg></svg></g><g><svg viewBox="0 0 395.52 247.2" height="247.2" width="395.52"><g><path d="M55.039 247.2l29.298-50.746h7.096l-25.556 44.264h263.766l-25.556-44.264 7.096 0 29.298 50.746zM197.76 0l29.298 50.746-7.095 0-22.203-38.456-22.203 38.456-7.095 0z" fill="black" fill-rule="nonzero" stroke="none" stroke-width="1" stroke-linecap="butt" stroke-linejoin="miter" stroke-miterlimit="10" stroke-dasharray="" stroke-dashoffset="0" font-family="none" font-weight="none" font-size="none" text-anchor="none" style="mix-blend-mode: normal"></path></g><g transform="matrix(1,0,0,1,0,71.56169343065693)"><svg viewBox="0 0 395.52 104.07661313868611" height="104.07661313868611" width="395.52"><g><svg viewBox="0 0 395.52 104.07661313868611" height="104.07661313868611" width="395.52"><g><svg viewBox="0 0 395.52 104.07661313868611" height="104.07661313868611" width="395.52"><g><svg viewBox="0 0 395.52 104.07661313868611" height="104.07661313868611" width="395.52"><g id="SvgjsG3285"><svg viewBox="0 0 395.52 104.07661313868611" height="104.07661313868611" width="395.52" id="SvgjsSvg3284"><g><svg viewBox="0 0 395.52 104.07661313868611" height="104.07661313868611" width="395.52"><g transform="matrix(1,0,0,1,0,0)"><svg width="395.52" viewBox="3.9 -35.5 136.98999999999998 36.05" height="104.07661313868611" data-palette-color="url(#42ff84cf-3699-4a32-8bc5-6ae8890a87e5)"><path d="M13.95 0L3.9-35 6.9-35 15.85-3.45 24.8-35 27.8-35 17.8 0 13.95 0ZM36.1 0L36.1-32.45 32.75-32.55 32.75-35 38.9-35 38.9 0 36.1 0ZM47.35-8.9Q47.5-7.2 48.62-5.65 49.75-4.1 51.72-3.13 53.7-2.15 56.25-2.15L56.25-2.15Q60.09-2.15 62.67-3.88 65.25-5.6 65.25-9.35L65.25-9.35Q65.25-11.55 64-13.03 62.75-14.5 60.9-15.38 59.05-16.25 55.85-17.4L55.85-17.4Q52.4-18.6 50.32-19.63 48.25-20.65 46.82-22.4 45.4-24.15 45.4-26.9L45.4-26.9Q45.4-29.1 46.65-31.08 47.9-33.05 50.42-34.27 52.95-35.5 56.65-35.5L56.65-35.5Q59.09-35.5 60.7-35.15 62.3-34.8 63.95-34L63.95-34 63.1-31.35Q60.25-32.8 56.75-32.8L56.75-32.8Q52.9-32.8 50.6-31.2 48.3-29.6 48.3-26.75L48.3-26.75Q48.3-24.95 49.45-23.73 50.6-22.5 52.27-21.75 53.95-21 56.95-19.95L56.95-19.95Q60.59-18.7 62.85-17.63 65.09-16.55 66.67-14.58 68.25-12.6 68.25-9.6L68.25-9.6Q68.25-5 65.32-2.23 62.4 0.55 56.3 0.55L56.3 0.55Q52.6 0.55 49.97-0.83 47.35-2.2 45.97-4.38 44.6-6.55 44.5-8.9L44.5-8.9 47.35-8.9ZM77.34 0L77.34-32.45 73.99-32.55 73.99-35 80.14-35 80.14 0 77.34 0ZM92.39 0L92.39-32.5 83.89-32.5 83.89-35 103.99-35 103.99-32.5 95.19-32.5 95.19 0 92.39 0ZM107.89 0L107.89-35 110.69-35 110.69-2.5 125.94-2.5 125.94 0 107.89 0ZM134.99-1.5Q136.29-2 137.16-3.33 138.04-4.65 138.04-7.6L138.04-7.6 138.04-14.7Q136.69-13.5 134.44-12.88 132.19-12.25 130.14-12.25L130.14-12.25Q124.84-12.25 121.76-14.88 118.69-17.5 118.69-22.65L118.69-22.65 118.69-35 121.49-35 121.49-22.15Q121.49-18.65 123.89-16.82 126.29-15 130.14-15L130.14-15Q133.09-15 135.29-16.25 137.49-17.5 138.04-20L138.04-20 138.04-35 140.89-35 140.89-7.8Q140.89-4.15 139.51-2.08 138.14 0 135.64 0.35L135.64 0.35 134.99-1.5Z" opacity="1" transform="matrix(1,0,0,1,0,0)" fill="black" class="wordmark-text-0" id="SvgjsPath3283"></path></svg></g></svg></g></svg></g></svg></g><g></g></svg></g></svg></g></svg></g></svg></g><defs><mask></mask></defs></svg><rect width="395.52" height="247.2" fill="black" stroke="none" visibility="hidden"></rect></g></mask></svg><rect width="395.52" height="247.2" fill="black" stroke="none" visibility="hidden"></rect></g></mask><linearGradient x1="0.054" x2="0.941" y1="0.5" y2="0.5" id="664b3e2e-68a1-47f6-b76f-316d6f84d878"><stop stop-color="#eaa79c" offset="0"></stop><stop stop-color="#f2e8cb" offset="0.498"></stop><stop stop-color="#eaa79c" offset="1"></stop></linearGradient></svg><rect width="395.52" height="247.2" fill="none" stroke="none" visibility="hidden"></rect></g></svg></g></svg>